<?xml version="1.0" standalone="no"?>
<!DOCTYPE svg PUBLIC "-//W3C//DTD SVG 20010904//EN"
 "http://www.w3.org/TR/2001/REC-SVG-20010904/DTD/svg10.dtd">
<svg version="1.0" xmlns="http://www.w3.org/2000/svg"
 width="576.000000pt" height="576.000000pt" viewBox="0 0 576.000000 576.000000"
 preserveAspectRatio="xMidYMid meet">
<metadata>
Created by potrace 1.14, written by Peter Selinger 2001-2017
</metadata>
<g transform="translate(0.000000,576.000000) scale(0.100000,-0.100000)"
fill="#000000" stroke="none">
<path d="M2951 5550 c-62 -10 -120 -21 -128 -24 -18 -7 -19 1 37 -341 21 -132
50 -314 64 -405 14 -91 28 -175 32 -187 6 -21 3 -23 -31 -23 -44 0 -92 -31
-196 -127 -126 -115 -222 -244 -283 -377 l-35 -76 -360 0 -359 0 -6 28 c-12
63 -68 411 -95 591 -16 106 -34 198 -39 203 -10 10 -188 -13 -228 -29 -16 -6
-17 -48 -4 -113 5 -25 30 -175 55 -335 25 -159 48 -302 51 -317 6 -25 4 -28
-21 -28 -63 0 -242 -164 -334 -305 -91 -139 -161 -346 -161 -477 l0 -48 -39 0
c-72 0 -71 2 -71 -140 0 -142 -1 -140 70 -140 36 0 39 -2 44 -32 6 -35 53
-358 112 -763 31 -216 59 -408 153 -1039 32 -216 40 -237 102 -268 32 -17 44
-40 48 -90 1 -17 -37 -18 -664 -18 l-665 0 0 -30 0 -30 2880 0 2880 0 0 30 0
30 -774 0 -773 0 11 62 c10 56 14 62 40 69 31 9 71 42 88 73 10 19 22 98 112
721 20 138 43 291 52 340 8 50 33 214 55 365 22 151 44 307 50 345 6 39 26
179 45 312 19 133 38 259 42 280 l8 37 49 -2 c28 -1 56 1 63 6 9 6 12 45 10
158 l-3 149 -56 3 -56 3 -7 73 c-10 114 -61 301 -110 403 -84 175 -223 343
-374 456 l-64 47 -458 0 -458 0 -6 28 c-3 15 -17 106 -31 202 -14 96 -36 238
-50 315 -13 77 -34 205 -45 285 -20 132 -31 172 -49 169 -3 -1 -57 -9 -120
-19z m103 -67 c7 -37 36 -220 36 -232 0 -4 -44 4 -97 19 l-98 27 -12 74 c-20
112 -20 112 62 125 103 17 103 17 109 -13z m-125 -317 c2 -45 -6 -27 -12 29
-4 34 -3 42 3 25 4 -14 8 -38 9 -54z m86 39 c39 -14 59 -23 45 -21 -90 19
-130 30 -130 38 0 12 8 10 85 -17z m-56 -32 c1 20 4 21 71 5 49 -11 51 -14 48
-39 -3 -16 -1 -26 4 -23 4 3 8 -5 8 -18 0 -18 -2 -20 -10 -8 -5 8 -10 10 -10
3 0 -14 -111 13 -122 30 -5 8 -8 6 -8 -4 0 -11 12 -19 36 -24 20 -3 34 -8 32
-11 -3 -2 -19 -1 -37 2 -39 8 -51 32 -26 50 10 8 13 14 7 14 -7 0 -12 12 -11
28 l1 27 8 -25 c5 -17 8 -19 9 -7z m149 -78 c0 -25 -2 -24 -9 10 -10 51 -10
92 1 50 4 -16 8 -43 8 -60z m-32 -26 c24 -6 44 -15 44 -19 0 -7 -31 1 -90 23
-27 10 0 7 46 -4z m-36 -58 l95 -29 17 -113 c9 -62 16 -114 15 -115 -2 -1
-190 56 -194 60 -7 6 -37 226 -30 226 1 0 45 -13 97 -29z m-1505 -359 c9 -57
15 -106 12 -108 -2 -2 -39 6 -83 18 l-79 23 -12 70 c-7 38 -12 74 -10 80 4 11
138 35 149 26 4 -3 14 -53 23 -109z m1479 64 c9 4 15 -6 18 -30 2 -20 1 -36
-3 -36 -4 0 -10 15 -12 33 l-4 32 -1 -37 c-2 -27 2 -38 16 -41 16 -4 16 -5 -1
-6 -20 -1 -24 7 -30 69 -2 25 -2 37 0 28 2 -9 10 -15 17 -12z m104 -2 c60 -16
62 -17 61 -48 -2 -30 -2 -30 -6 -3 -4 27 -17 35 -28 17 -3 -5 -2 -10 3 -10 10
0 25 -60 18 -67 -6 -6 -116 19 -117 26 0 3 -3 18 -5 34 -3 18 0 27 8 27 9 0 9
3 -2 10 -12 8 -12 10 5 11 14 0 10 5 -15 15 -39 16 -21 13 78 -12z m72 -114
c0 -25 -4 -30 -23 -30 -22 0 -171 48 -154 49 15 2 102 -22 112 -30 6 -4 21 -7
33 -6 16 1 22 8 22 24 0 13 2 23 5 23 3 0 5 -13 5 -30z m-1639 -118 c4 -4 10
-30 14 -59 l7 -52 -69 19 c-37 11 -71 20 -75 20 -8 0 -14 21 -23 77 l-7 42 74
-20 c40 -11 76 -23 79 -27z m1424 -4 c21 -131 80 -497 105 -663 17 -110 32
-206 35 -212 3 -10 -73 -13 -362 -13 l-366 0 6 75 c16 188 91 397 193 541 63
89 172 203 247 259 46 35 67 45 98 45 35 0 38 -2 44 -32z m222 24 c10 -6 55
-221 48 -230 -3 -3 -188 47 -193 53 -1 1 -7 31 -13 66 -5 35 -12 76 -15 92
l-6 27 84 0 c46 0 88 -4 95 -8z m1043 -52 c247 -202 393 -480 424 -807 l5 -53
-632 0 -633 0 -22 143 c-13 78 -41 255 -62 392 -22 138 -44 274 -50 304 -5 29
-10 60 -10 67 0 12 77 14 453 14 l453 0 74 -60z m-2729 -111 l78 -22 11 -71
c6 -39 14 -84 17 -100 4 -25 3 -28 -12 -22 -10 3 -47 14 -82 23 -71 17 -76 23
-87 108 -4 28 -9 62 -12 78 -3 15 -2 27 2 27 3 0 42 -10 85 -21z m1682 -112
c59 -21 62 -24 63 -57 2 -34 2 -34 -3 -3 -4 27 -10 34 -41 43 -20 5 -44 10
-52 10 -9 0 -21 5 -27 11 -15 15 -33 2 -27 -19 5 -15 5 -15 -6 1 -6 9 -8 22
-5 27 3 6 1 10 -4 10 -7 0 -9 -20 -6 -57 l4 -58 -9 49 c-5 26 -11 55 -14 63
-5 13 0 14 30 9 20 -4 64 -17 97 -29z m34 -65 c3 -21 0 -32 -9 -32 -10 0 -9
-3 2 -10 9 -6 17 -5 22 3 5 8 8 6 8 -6 0 -13 -5 -17 -17 -13 -10 3 -38 10 -61
16 -31 8 -42 15 -38 25 3 8 1 17 -4 20 -6 4 -10 17 -10 30 0 22 1 23 52 11 48
-10 52 -14 55 -44z m-102 -10 c-8 -8 -25 10 -25 26 0 13 2 13 14 -4 8 -10 13
-21 11 -22z m61 -46 c77 -20 72 -20 77 7 4 19 4 18 6 -5 1 -34 -1 -34 -102 -7
-51 14 -74 25 -66 30 8 4 16 4 19 -1 3 -4 33 -15 66 -24z m-1642 -16 c75 -21
86 -30 86 -74 l0 -28 -69 4 c-39 2 -72 6 -74 8 -6 6 -20 110 -15 110 2 0 34
-9 72 -20z m1657 -55 l86 -25 16 -103 c10 -56 17 -107 17 -113 0 -8 -18 -6
-57 6 -32 10 -76 23 -98 29 l-41 11 -13 102 c-8 57 -16 109 -18 116 -3 7 0 10
8 8 8 -3 53 -17 100 -31z m-1756 -127 c3 -18 14 -87 25 -153 10 -66 35 -221
54 -345 20 -124 36 -233 36 -242 0 -15 -25 -17 -299 -18 -165 0 -302 3 -305 8
-7 11 12 156 30 227 21 81 94 233 148 309 45 62 152 171 216 219 19 15 47 27
62 27 23 0 28 -5 33 -32z m149 9 l60 -22 12 -70 c7 -38 13 -82 13 -97 l1 -27
-82 28 -83 28 -12 74 c-20 126 -19 127 91 86z m796 15 c0 -5 -9 -44 -20 -88
-11 -43 -23 -118 -27 -166 l-6 -88 -52 0 c-33 0 -57 -5 -64 -14 -8 -9 -11 -59
-9 -152 l3 -139 60 -3 c33 -2 63 -6 66 -10 4 -4 10 -33 14 -64 l6 -58 -264 0
c-200 0 -267 3 -274 13 -5 6 -15 50 -22 97 -7 47 -32 209 -57 360 -24 152 -44
286 -44 298 l0 22 345 0 c190 0 345 -4 345 -8z m938 -208 c2 -1 6 -22 9 -46 3
-25 2 -39 -3 -35 -9 9 -10 13 -13 45 -1 15 -3 15 -11 2 -6 -10 -10 -11 -10 -2
0 6 -3 12 -7 12 -5 0 -8 -13 -8 -30 0 -32 14 -43 16 -12 1 11 4 8 8 -8 4 -14
7 -26 6 -27 0 -1 -30 5 -66 15 -55 15 -64 21 -66 42 -3 25 -3 25 7 3 5 -13 15
-23 22 -22 10 0 10 2 1 6 -7 2 -13 16 -13 29 0 14 -4 23 -8 20 -5 -3 -9 1 -9
9 0 19 2 18 66 -1 29 -8 58 -13 64 -11 6 2 -18 11 -53 20 -36 9 -75 20 -87 23
-21 6 -22 4 -13 -27 6 -19 10 -43 9 -54 0 -20 0 -20 -8 0 -5 11 -12 39 -15 61
l-7 42 93 -26 c51 -14 95 -27 96 -28z m-1668 -63 c20 -6 26 -17 36 -65 8 -42
8 -56 0 -53 -6 2 -41 12 -78 22 -64 17 -66 19 -73 54 -3 20 -9 46 -12 58 l-5
23 53 -17 c30 -8 65 -19 79 -22z m1575 -30 c39 -11 77 -23 87 -26 11 -4 18 0
21 12 4 14 5 14 6 -4 0 -13 -4 -23 -10 -23 -15 0 -179 51 -179 56 0 6 -2 6 75
-15z m-98 -171 c7 -41 14 -87 17 -102 l6 -28 -450 0 -450 0 0 98 c0 54 3 102
7 105 3 4 198 6 432 4 l426 -2 12 -75z m208 71 c15 -6 22 -24 32 -82 20 -125
22 -119 -43 -119 -31 0 -73 5 -94 11 l-37 11 -12 82 c-6 44 -11 87 -11 94 0
14 130 16 165 3z m1445 -96 l0 -105 -673 0 -674 0 -15 98 c-8 53 -13 100 -11
105 2 4 312 7 689 7 l684 0 0 -105z m-3149 74 l78 -22 11 -71 c6 -39 13 -83
16 -98 3 -16 4 -28 2 -28 -2 0 -39 11 -83 23 l-80 23 -17 89 c-20 106 -20 105
-12 105 4 0 42 -10 85 -21z m33 -249 c75 -21 86 -30 86 -72 0 -28 -1 -28 -62
-28 -35 0 -68 4 -74 8 -10 6 -31 112 -22 112 2 0 34 -9 72 -20z m1527 -205
c20 -121 39 -239 43 -262 l6 -43 -389 0 c-344 0 -390 2 -395 16 -5 14 -76 482
-76 504 0 7 139 9 387 8 l387 -3 37 -220z m52 218 c-12 -2 -24 -12 -26 -21 -3
-12 -5 -10 -6 6 -1 18 4 22 27 21 22 -1 23 -2 5 -6z m1404 -35 c-3 -24 -19
-137 -36 -253 -17 -115 -31 -216 -31 -222 0 -9 -18 -13 -55 -13 -30 0 -55 4
-55 9 0 5 11 86 25 181 32 219 32 225 -4 261 -39 39 -89 40 -131 2 -30 -27
-32 -34 -60 -228 -17 -110 -30 -206 -30 -213 0 -10 -78 -12 -372 -10 l-373 3
-37 240 c-20 132 -37 250 -37 263 l-1 22 601 0 602 0 -6 -42z m-1362 22 c-14
-5 -6 -7 27 -6 44 1 68 -7 56 -20 -3 -3 -15 0 -27 8 -16 10 -23 10 -33 0 -9
-9 -7 -12 9 -12 12 0 24 -4 28 -10 3 -5 11 -7 18 -4 8 3 13 -4 14 -18 0 -13
-1 -17 -4 -10 -3 6 -8 12 -13 12 -13 0 1 -44 18 -57 14 -12 14 -13 -4 -14 -18
0 -18 -1 1 -9 29 -12 11 -12 -42 1 -44 12 -45 12 -22 25 l24 13 -23 1 c-13 0
-21 4 -18 9 3 4 -7 6 -22 5 -15 -2 -21 -1 -14 2 6 3 12 15 11 27 0 21 -1 21
-9 2 -8 -19 -9 -19 -9 2 -1 12 -4 28 -7 36 -5 15 12 24 46 25 9 0 7 -3 -5 -8z
m119 -67 c4 -21 9 -50 12 -65 3 -16 1 -28 -4 -28 -5 0 -9 6 -9 13 -1 6 -5 38
-10 69 -6 32 -7 55 -3 53 4 -3 11 -22 14 -42z m-164 -15 c0 -10 6 -18 14 -18
8 0 18 -4 21 -10 10 -16 -22 -11 -39 6 -9 8 -16 27 -16 42 0 21 2 24 10 12 5
-8 10 -23 10 -32z m1224 -14 c20 -20 20 -12 -8 -189 -13 -83 -32 -208 -41
-280 -20 -146 -32 -175 -73 -175 -37 0 -52 17 -52 56 0 64 74 544 90 582 11
27 60 30 84 6z m-2759 -75 l73 -22 7 -51 c4 -28 9 -59 12 -69 4 -16 -3 -18
-78 -15 l-84 3 -12 70 c-21 121 -26 115 82 84z m-141 -6 c4 -16 26 -131 26
-140 0 -2 -169 -3 -375 -3 l-375 0 0 80 0 80 359 0 c334 0 360 -1 365 -17z
m800 -30 c4 -27 10 -63 13 -80 l5 -33 -269 0 -270 0 -12 69 c-6 39 -11 75 -11
80 0 8 87 11 269 11 l269 0 6 -47z m975 13 c45 -13 85 -27 88 -30 3 -3 14 -56
23 -116 14 -92 15 -110 3 -106 -7 3 -51 15 -98 28 l-84 22 -6 50 c-4 28 -13
79 -20 114 -9 47 -10 62 -1 62 7 0 49 -11 95 -24z m-1744 -185 c3 -5 18 -96
35 -202 16 -107 32 -204 35 -216 l5 -23 -330 0 c-181 0 -330 3 -330 8 0 4 -14
97 -30 207 -16 110 -30 208 -30 218 0 16 20 17 320 17 176 -1 322 -5 325 -9z
m205 -1 c0 -5 -7 -7 -15 -4 -8 4 -15 8 -15 10 0 2 7 4 15 4 8 0 15 -4 15 -10z
m590 -12 c5 -13 19 -97 30 -188 12 -91 23 -182 27 -202 l6 -38 -266 0 -265 0
-11 68 c-30 175 -57 372 -53 377 3 3 122 5 264 5 l258 0 10 -22z m-657 -25
c34 -9 66 -19 70 -23 13 -11 26 -112 13 -107 -6 2 -41 12 -78 22 -38 10 -68
23 -68 29 -1 6 -5 30 -9 54 -5 24 -4 42 0 42 5 0 37 -8 72 -17z m1662 -71 c5
-3 25 -9 45 -13 24 -5 7 -7 -56 -8 l-92 -1 -4 29 -4 29 50 -15 c28 -8 55 -18
61 -21z m-1639 -93 c38 -11 74 -27 80 -35 12 -15 40 -171 32 -179 -5 -5 -150
34 -160 44 -9 9 -36 191 -27 191 4 0 38 -9 75 -21z m2501 8 c-3 -8 -8 -43 -12
-79 -7 -62 -6 -67 21 -97 65 -72 153 -40 173 62 5 29 12 69 16 90 l6 37 54 0
c30 0 55 -3 55 -7 0 -5 -7 -51 -16 -103 -8 -52 -33 -214 -54 -360 -22 -146
-62 -418 -90 -605 -28 -187 -63 -428 -79 -535 -28 -190 -30 -195 -60 -222
l-31 -28 -726 0 -726 0 -29 29 c-39 39 -37 50 9 44 71 -10 125 61 102 132 -19
56 -88 83 -142 54 -11 -6 -21 -9 -24 -7 -2 2 -20 112 -39 244 -90 606 -117
789 -158 1067 l-44 297 900 0 c743 0 898 -2 894 -13z m-1785 -347 c25 -170 98
-673 98 -682 0 -7 -4 -7 -12 0 -13 10 -39 15 -71 13 -10 0 -29 -12 -42 -26
-32 -31 -32 -75 -1 -111 30 -36 84 -38 120 -5 l24 22 5 -33 c36 -204 40 -260
27 -374 -11 -105 -14 -113 -31 -104 -80 43 -175 -54 -123 -128 20 -29 63 -50
91 -46 17 3 21 0 16 -11 -3 -9 -14 -20 -24 -25 -11 -6 -257 -10 -642 -10 -606
0 -624 1 -642 20 -12 14 -24 65 -41 182 -13 90 -26 179 -28 198 l-6 35 23 -28
c14 -17 35 -30 58 -33 31 -5 42 -1 70 24 55 49 40 127 -30 153 -52 20 -120
-25 -122 -81 -1 -23 -39 228 -123 800 -20 135 -38 257 -41 273 l-5 27 723 -2
722 -3 7 -45z m352 -1312 c8 -22 6 -32 -9 -48 -34 -38 -85 -20 -85 30 0 35 19
52 55 48 22 -2 32 -10 39 -30z m-139 -135 c8 -37 54 -82 91 -89 22 -4 34 -12
35 -23 0 -9 4 -37 8 -63 l8 -48 -162 0 -162 0 8 43 c4 23 8 45 9 50 0 4 8 7
18 7 26 0 89 66 96 100 3 16 8 60 12 97 l7 67 14 -59 c8 -33 16 -70 18 -82z
m1485 -112 c0 -10 -3 -39 -6 -65 l-7 -46 -642 0 -642 0 -7 46 c-3 26 -6 55 -6
65 0 18 23 19 655 19 632 0 655 -1 655 -19z m-1704 -42 c-3 -17 -6 -40 -6 -50
0 -18 -19 -19 -544 -19 l-544 0 -6 23 c-3 12 -6 34 -6 50 l0 27 556 0 557 0
-7 -31z"/>
<path d="M3088 4703 c7 -3 16 -2 19 1 4 3 -2 6 -13 5 -11 0 -14 -3 -6 -6z"/>
<path d="M3128 4693 c7 -3 16 -2 19 1 4 3 -2 6 -13 5 -11 0 -14 -3 -6 -6z"/>
<path d="M4020 4409 c-84 -33 -91 -133 -13 -184 133 -87 260 -265 302 -422 27
-100 147 -112 187 -18 39 95 -119 390 -287 535 -97 84 -145 106 -189 89z m83
-61 c70 -48 183 -168 237 -250 52 -77 120 -234 120 -274 0 -31 -21 -54 -49
-54 -36 0 -54 22 -76 90 -41 127 -124 254 -220 336 -108 91 -126 111 -118 131
17 49 55 57 106 21z"/>
<path d="M3148 4193 c7 -3 16 -2 19 1 4 3 -2 6 -13 5 -11 0 -14 -3 -6 -6z"/>
<path d="M3338 3133 c7 -3 16 -2 19 1 4 3 -2 6 -13 5 -11 0 -14 -3 -6 -6z"/>
<path d="M3310 2774 c0 -10 12 -14 48 -13 26 1 38 3 27 6 -11 2 -32 8 -47 13
-22 7 -28 6 -28 -6z"/>
<path d="M4273 2410 c-49 -20 -56 -49 -128 -550 -15 -102 -28 -187 -30 -189
-2 -2 -11 4 -20 13 -10 10 -33 16 -59 16 -113 0 -144 -134 -43 -183 30 -15 43
-17 67 -8 17 5 30 6 30 1 0 -5 -9 -71 -20 -147 -12 -76 -20 -151 -18 -168 1
-16 -6 -42 -15 -56 -56 -85 -10 -207 87 -229 142 -32 242 134 147 243 -26 29
-28 36 -21 81 7 48 21 66 51 66 26 0 60 46 66 87 4 32 0 45 -22 71 -15 18 -33
32 -41 32 -11 0 -13 8 -9 33 3 17 19 124 35 237 16 113 41 279 54 370 33 214
33 215 -8 256 -35 35 -61 41 -103 24z m81 -62 c13 -20 9 -56 -30 -323 -25
-165 -62 -421 -84 -570 -34 -238 -42 -272 -61 -287 -26 -22 -39 -22 -64 -4
-25 18 -24 34 25 366 22 151 58 396 80 545 42 285 45 295 97 295 12 0 29 -10
37 -22z m-300 -698 c21 -8 26 -16 26 -45 0 -28 -5 -38 -25 -47 -55 -25 -103
52 -53 86 27 19 21 18 52 6z m266 -253 c0 -20 -26 -57 -40 -57 -7 0 -5 26 6
78 4 20 7 22 19 12 8 -7 15 -22 15 -33z m-76 -289 c50 -71 -23 -174 -108 -152
-59 14 -96 102 -63 148 10 14 18 15 40 7 28 -11 84 -5 93 10 9 15 22 10 38
-13z"/>
<path d="M2788 1834 c-34 -18 -48 -43 -48 -87 0 -45 46 -87 94 -87 35 0 78 37
90 77 9 30 -18 79 -54 98 -36 18 -47 18 -82 -1z m77 -54 c15 -17 16 -24 7 -45
-20 -43 -82 -28 -82 20 0 45 44 59 75 25z"/>
<path d="M3575 1763 c-63 -12 -111 -96 -93 -162 33 -122 199 -129 248 -10 26
63 -19 149 -88 169 -20 5 -39 9 -42 9 -3 -1 -14 -4 -25 -6z m86 -72 c38 -39
38 -74 -1 -113 -26 -25 -36 -29 -62 -24 -61 12 -86 58 -62 115 23 55 81 65
125 22z"/>
<path d="M3186 1651 c-125 -82 -69 -274 79 -274 91 0 152 70 143 163 -5 47
-11 59 -46 92 -37 34 -47 38 -94 38 -35 0 -63 -7 -82 -19z m108 -31 c44 -16
66 -46 66 -91 0 -22 -5 -49 -10 -60 -16 -30 -68 -52 -105 -45 -92 18 -109 154
-23 191 40 17 41 17 72 5z"/>
<path d="M2830 1488 c-99 -67 -107 -188 -16 -259 43 -34 121 -38 165 -7 57 38
75 72 75 133 0 85 -54 144 -141 152 -39 4 -55 0 -83 -19z m146 -62 c46 -46 47
-91 3 -141 -26 -29 -38 -35 -71 -35 -50 0 -74 13 -93 50 -19 37 -19 73 1 111
17 34 43 47 93 48 25 1 41 -7 67 -33z"/>
<path d="M3756 1457 c-58 -33 -79 -67 -84 -136 -5 -73 16 -123 69 -158 135
-89 311 32 269 186 -29 110 -156 164 -254 108z m145 -42 c37 -20 69 -70 69
-110 0 -62 -63 -125 -125 -125 -38 0 -90 25 -109 51 -18 27 -22 110 -5 140 27
52 112 73 170 44z"/>
<path d="M3455 1401 c-65 -27 -82 -118 -32 -168 62 -63 167 -15 167 76 0 32
-6 44 -35 70 -36 31 -63 37 -100 22z m69 -54 c12 -9 17 -23 14 -47 -2 -27 -9
-37 -30 -44 -52 -18 -89 44 -51 86 19 21 42 23 67 5z"/>
<path d="M3155 1235 c-135 -48 -151 -236 -27 -308 41 -24 117 -25 166 -2 72
34 110 151 72 223 -21 41 -68 81 -107 92 -43 13 -55 12 -104 -5z m108 -49 c78
-32 97 -132 36 -194 -81 -83 -217 -19 -206 96 9 87 88 133 170 98z"/>
<path d="M3541 1084 c-66 -55 -24 -174 62 -174 44 0 92 38 100 79 20 97 -86
159 -162 95z m111 -49 c15 -32 -12 -75 -47 -75 -45 0 -67 67 -31 92 25 17 66
8 78 -17z"/>
<path d="M1823 1603 c-12 -2 -36 -20 -53 -39 -42 -48 -43 -113 -1 -154 78 -79
201 -32 201 76 0 75 -72 132 -147 117z"/>
<path d="M1426 1519 c-35 -41 -34 -83 3 -120 48 -48 116 -38 147 22 32 62 -13
129 -86 129 -30 0 -44 -6 -64 -31z"/>
<path d="M2094 1516 c-99 -43 -107 -172 -15 -233 62 -42 148 -19 183 47 37 71
9 156 -62 184 -48 19 -65 19 -106 2z"/>
<path d="M2405 1376 c-103 -46 -115 -187 -20 -246 39 -24 85 -25 132 -3 75 35
98 141 46 204 -28 32 -78 59 -110 59 -10 -1 -31 -7 -48 -14z"/>
<path d="M1580 1341 c-41 -21 -80 -83 -80 -128 -1 -144 175 -214 269 -108 36
41 45 72 38 125 -14 106 -131 163 -227 111z"/>
<path d="M1895 1278 c-15 -14 -28 -38 -31 -59 -13 -78 89 -135 147 -83 32 28
41 61 29 100 -21 62 -96 84 -145 42z"/>
<path d="M2111 1138 c-19 -12 -42 -39 -52 -58 -73 -137 92 -282 218 -191 50
36 67 76 61 142 -4 42 -12 57 -41 87 -31 31 -43 36 -94 40 -49 3 -64 0 -92
-20z"/>
<path d="M1330 1113 c-96 -50 -106 -177 -17 -231 78 -49 182 -3 202 88 22 99
-95 189 -185 143z"/>
<path d="M1807 1039 c-27 -16 -49 -67 -42 -98 9 -43 49 -75 92 -75 45 0 93 48
93 95 0 64 -86 111 -143 78z"/>
</g>
</svg>
